<?xml version="1.0" encoding="UTF-8"?>
<svg version="1.1" xmlns="http://www.w3.org/2000/svg" width="256" height="256">
<path d="M0 0 C0.763125 0.0825 1.52625 0.165 2.3125 0.25 C8.69365071 10.40183067 7.57945425 23.69681324 7.3125 35.25 C7.9725 35.25 8.6325 35.25 9.3125 35.25 C9.6425 33.93 9.9725 32.61 10.3125 31.25 C20.04223278 31.62422049 29.52402567 36.30365417 36.3125 43.25 C44.45960665 53.80729237 44.45960665 53.80729237 44.4375 61.3125 C44.44136719 62.62927734 44.44136719 62.62927734 44.4453125 63.97265625 C44.3125 66.25 44.3125 66.25 43.3125 68.25 C38.6925 68.25 34.0725 68.25 29.3125 68.25 C28.8175 70.23 28.8175 70.23 28.3125 72.25 C24.49923527 78.15440991 20.0593318 80.46099524 13.3125 82.25 C10.41542564 82.59840633 7.57674667 82.80756519 4.66015625 82.87890625 C1.90022865 83.31516768 1.03391055 84.10817896 -0.6875 86.25 C1.10294307 91.22554707 3.80174132 95.60108975 6.56640625 100.078125 C8.66747772 103.61839195 9.79863859 106.10998106 9.3125 110.25 C6.85041314 109.87661067 5.62826948 109.6152918 3.97216797 107.69946289 C3.39426514 106.7209436 3.39426514 106.7209436 2.8046875 105.72265625 C2.37542969 105.01302734 1.94617188 104.30339844 1.50390625 103.57226562 C0.85228516 102.45368164 0.85228516 102.45368164 0.1875 101.3125 C-0.68789142 99.84373102 -1.56540566 98.3762246 -2.4453125 96.91015625 C-2.8283252 96.25668213 -3.21133789 95.60320801 -3.60595703 94.92993164 C-4.70721679 93.08909872 -4.70721679 93.08909872 -6.6875 91.25 C-7.821875 91.724375 -8.95625 92.19875 -10.125 92.6875 C-17.66454253 95.47500692 -25.07147586 96.19901112 -32.6875 93.25 C-39.48606657 89.40360378 -44.81174989 83.98105555 -47 76.375 C-49.35513552 64.59932238 -46.19550843 55.18436508 -40.08984375 45.0859375 C-39.62707031 44.48007813 -39.16429687 43.87421875 -38.6875 43.25 C-38.0275 43.25 -37.3675 43.25 -36.6875 43.25 C-36.3575 42.26 -36.0275 41.27 -35.6875 40.25 C-28.16302813 34.30473828 -18.35898744 30.46582534 -8.6875 31.25 C-9.1825 29.765 -9.1825 29.765 -9.6875 28.25 C-10.32693924 19.50750291 -10.38999426 11.90442497 -5.6875 4.25 C-5.213125 3.404375 -4.73875 2.55875 -4.25 1.6875 C-2.6875 0.25 -2.6875 0.25 0 0 Z M-18.6875 60.25 C-18.6875 60.91 -18.6875 61.57 -18.6875 62.25 C-14.27707018 64.52176014 -14.27707018 64.52176014 -9.5 65.1875 C-7.08886 63.94035862 -5.49615486 62.25243931 -3.6875 60.25 C-4.0175 59.26 -4.3475 58.27 -4.6875 57.25 C-9.74982884 56.76009721 -14.01380846 58.5393678 -18.6875 60.25 Z M1.3125 65.25 C0.08735711 66.28876234 0.08735711 66.28876234 -0.125 68.5 C0.41453795 71.89138139 1.80789622 73.32087914 4.5234375 75.3671875 C7.67716685 76.92339456 10.06281517 76.23103693 13.3125 75.25 C15.33728463 74.14350331 15.33728463 74.14350331 16.3125 72.25 C16.89600505 69.79290625 16.89600505 69.79290625 16.3125 67.25 C14.22743836 64.36299157 12.77353845 63.39713993 9.375 62.3125 C5.72867314 62.23808517 4.20288762 63.10285491 1.3125 65.25 Z " fill="#CAA453" transform="translate(86.6875,106.75)"/>
<path d="M0 0 C5.04424925 4.81496519 7.21202839 8.63136906 7.75 15.625 C7.75 16.285 7.75 16.945 7.75 17.625 C8.35457031 18.20507812 8.95914063 18.78515625 9.58203125 19.3828125 C12.06337419 21.94910231 13.10665859 24.20018502 14.4375 27.5 C14.85386719 28.50804687 15.27023438 29.51609375 15.69921875 30.5546875 C19.73193411 42.33801194 18.37313501 55.15940571 13.53125 66.47265625 C7.94538942 77.50473089 0.01940524 86.34844321 -11.5625 90.9375 C-16.67552974 91.89077673 -23.44536937 93.02731532 -28.25 90.625 C-28.85481406 87.60092968 -28.81988629 85.49727493 -27.1015625 82.8671875 C-21.78541171 77.11804705 -15.1497484 73.03154761 -8.59814453 68.83740234 C-4.76249264 66.37389327 -1.30074659 64.06939131 1.75 60.625 C1.0075 61.285 0.265 61.945 -0.5 62.625 C-3.25 64.625 -3.25 64.625 -7.25 64.625 C-11.66449478 53.45737928 -11.84204196 41.5543855 -7.59765625 30.296875 C-5.26031198 25.66283592 -1.98750001 20.99375 2.75 18.625 C2.03199219 18.38007812 1.31398438 18.13515625 0.57421875 17.8828125 C-7.70863359 14.89149596 -15.28376318 11.11214065 -22.97583008 6.84033203 C-23.76111084 6.41091309 -24.5463916 5.98149414 -25.35546875 5.5390625 C-26.05824951 5.1467041 -26.76103027 4.7543457 -27.48510742 4.35009766 C-28.06752197 4.11081543 -28.64993652 3.8715332 -29.25 3.625 C-29.91 3.955 -30.57 4.285 -31.25 4.625 C-29.27 5.285 -27.29 5.945 -25.25 6.625 C-25.54969269 9.95687759 -26.06525496 11.41945815 -28.33203125 13.94140625 C-38.69533669 22.46629985 -48.37242204 25.60075698 -61.6484375 25.01171875 C-66.37325566 24.50439012 -68.72750374 23.80383809 -72.25 20.625 C-73.22664069 17.75641286 -73.5193502 16.27729592 -72.3515625 13.44921875 C-64.79277688 2.51097607 -54.89063788 -5.26626049 -41.875 -8.75 C-27.38454582 -11.29172524 -11.81352539 -9.16870627 0 0 Z " fill="#C066E9" transform="translate(162.25,85.375)"/>
<path d="M0 0 C0.763125 0.0825 1.52625 0.165 2.3125 0.25 C8.69365071 10.40183067 7.57945425 23.69681324 7.3125 35.25 C7.9725 35.25 8.6325 35.25 9.3125 35.25 C9.6425 33.93 9.9725 32.61 10.3125 31.25 C20.04223278 31.62422049 29.52402567 36.30365417 36.3125 43.25 C44.45960665 53.80729237 44.45960665 53.80729237 44.4375 61.3125 C44.44136719 62.62927734 44.44136719 62.62927734 44.4453125 63.97265625 C44.3125 66.25 44.3125 66.25 43.3125 68.25 C38.6925 68.25 34.0725 68.25 29.3125 68.25 C29.3125 64.62 29.3125 60.99 29.3125 57.25 C27.8275 56.755 27.8275 56.755 26.3125 56.25 C24.66429805 53.64757586 24.3125 52.38751221 24.3125 49.25 C23.6525 49.25 22.9925 49.25 22.3125 49.25 C21.9825 50.24 21.6525 51.23 21.3125 52.25 C20.6525 51.92 19.9925 51.59 19.3125 51.25 C19.3125 49.6 19.3125 47.95 19.3125 46.25 C17.8275 45.755 17.8275 45.755 16.3125 45.25 C15.9825 44.59 15.6525 43.93 15.3125 43.25 C12.3425 43.25 9.3725 43.25 6.3125 43.25 C5.9825 45.56 5.6525 47.87 5.3125 50.25 C4.3225 49.755 4.3225 49.755 3.3125 49.25 C3.57906572 52.18443402 3.57906572 52.18443402 4.3125 55.25 C5.3025 55.91 6.2925 56.57 7.3125 57.25 C6.9825 58.57 6.6525 59.89 6.3125 61.25 C7.3025 61.745 7.3025 61.745 8.3125 62.25 C3.98515609 64.47923777 1.02849818 64.17470553 -3.6875 63.25 C-3.6875 61.27 -3.6875 59.29 -3.6875 57.25 C-5.3890625 56.816875 -5.3890625 56.816875 -7.125 56.375 C-8.300625 56.00375 -9.47625 55.6325 -10.6875 55.25 C-11.0175 54.59 -11.3475 53.93 -11.6875 53.25 C-14.04349235 52.78248212 -14.04349235 52.78248212 -16.75 52.625 C-17.66910156 52.55023438 -18.58820313 52.47546875 -19.53515625 52.3984375 C-20.24542969 52.34945312 -20.95570312 52.30046875 -21.6875 52.25 C-21.6875 52.91 -21.6875 53.57 -21.6875 54.25 C-21.0275 54.25 -20.3675 54.25 -19.6875 54.25 C-20.0175 55.24 -20.3475 56.23 -20.6875 57.25 C-22.0075 56.59 -23.3275 55.93 -24.6875 55.25 C-25.0175 56.57 -25.3475 57.89 -25.6875 59.25 C-28.6575 59.91 -31.6275 60.57 -34.6875 61.25 C-34.6875 61.91 -34.6875 62.57 -34.6875 63.25 C-37.0625 63.4375 -37.0625 63.4375 -39.6875 63.25 C-41.6875 60.25 -41.6875 60.25 -41.6875 56.25 C-43.6675 56.745 -43.6675 56.745 -45.6875 57.25 C-44.26913643 52.0923143 -42.01358425 47.45024742 -38.6875 43.25 C-38.0275 43.25 -37.3675 43.25 -36.6875 43.25 C-36.3575 42.26 -36.0275 41.27 -35.6875 40.25 C-28.16302813 34.30473828 -18.35898744 30.46582534 -8.6875 31.25 C-9.1825 29.765 -9.1825 29.765 -9.6875 28.25 C-10.32693924 19.50750291 -10.38999426 11.90442497 -5.6875 4.25 C-5.213125 3.404375 -4.73875 2.55875 -4.25 1.6875 C-2.6875 0.25 -2.6875 0.25 0 0 Z " fill="#CCA24C" transform="translate(86.6875,106.75)"/>
<path d="M0 0 C4.75 0.875 4.75 0.875 7 2 C7.31811503 3.67599495 7.55419524 5.36785645 7.75 7.0625 C8.69558263 12.99951879 10.9996464 16.60967482 15 21 C16.98 20.67 18.96 20.34 21 20 C20.46375 20.556875 19.9275 21.11375 19.375 21.6875 C18.694375 22.8321875 18.694375 22.8321875 18 24 C19.49141459 29.01576932 22.52152808 33.40337419 25.25390625 37.828125 C27.35497772 41.36839195 28.48613859 43.85998106 28 48 C25.53791314 47.62661067 24.31576948 47.3652918 22.65966797 45.44946289 C22.27439941 44.7971167 21.88913086 44.14477051 21.4921875 43.47265625 C21.06292969 42.76302734 20.63367188 42.05339844 20.19140625 41.32226562 C19.75699219 40.57654297 19.32257813 39.83082031 18.875 39.0625 C17.99960858 37.59373102 17.12209434 36.1262246 16.2421875 34.66015625 C15.8591748 34.00668213 15.47616211 33.35320801 15.08154297 32.67993164 C13.98028321 30.83909872 13.98028321 30.83909872 12 29 C10.865625 29.474375 9.73125 29.94875 8.5625 30.4375 C0.89694739 33.27159515 -6.222274 33.73822563 -14 31 C-16.37123283 29.84853714 -17.95653937 28.72908207 -20 27 C-20 26.01 -20 25.02 -20 24 C-13.25 22.875 -13.25 22.875 -11 24 C-11.061875 22.1128125 -11.061875 22.1128125 -11.125 20.1875 C-11.2390374 16.70935927 -11.05925681 16.08888522 -9 13 C-8.01 13 -7.02 13 -6 13 C-5.67 11.02 -5.34 9.04 -5 7 C-4.01 7 -3.02 7 -2 7 C-2 7.99 -2 8.98 -2 10 C-1.67 9.67 -1.34 9.34 -1 9 C-1 7.865625 -1 6.73125 -1 5.5625 C-1 2 -1 2 0 0 Z " fill="#A89E54" transform="translate(68,169)"/>
<path d="M0 0 C0.33 0 0.66 0 1 0 C3.97062078 13.36779351 1.65959427 26.57317021 -5.203125 38.328125 C-11.01438582 46.96921718 -17.60375882 53.46564029 -27.3125 57.3125 C-32.42552974 58.26577673 -39.19536937 59.40231532 -44 57 C-44.60481406 53.97592968 -44.56988629 51.87227493 -42.8515625 49.2421875 C-37.53541171 43.49304705 -30.8997484 39.40654761 -24.34814453 35.21240234 C-20.51249264 32.74889327 -17.05074659 30.44439131 -14 27 C-14.7425 27.66 -15.485 28.32 -16.25 29 C-19 31 -19 31 -23 31 C-26.11584616 22.95073076 -26.33328851 15.56674915 -26 7 C-25.67 7 -25.34 7 -25 7 C-24.92652344 7.99580078 -24.92652344 7.99580078 -24.8515625 9.01171875 C-24.44915495 13.76429063 -23.8411109 17.58133385 -22 22 C-21.875 25.3125 -21.875 25.3125 -22 28 C-21.01 28.33 -20.02 28.66 -19 29 C-19 28.34 -19 27.68 -19 27 C-15.62902617 25.50178941 -13.79557881 25 -10 25 C-10.66 26.98 -11.32 28.96 -12 31 C-10.02 30.34 -8.04 29.68 -6 29 C-6 29.66 -6 30.32 -6 31 C-5.01 31 -4.02 31 -3 31 C-3.495 29.02 -3.495 29.02 -4 27 C-3.34 26.67 -2.68 26.34 -2 26 C-1.5720382 24.13690908 -1.5720382 24.13690908 -1.4375 22 C-1.09589041 18.09589041 -1.09589041 18.09589041 0 17 C0.13568319 13.33655389 0.16461426 10.49384279 -1 7 C-0.72230092 4.6593935 -0.39460023 2.32375692 0 0 Z " fill="#B164F7" transform="translate(178,119)"/>
<path d="M0 0 C7.72574257 -0.90891089 7.72574257 -0.90891089 10.67578125 1.1953125 C12.94574635 3.86034527 14.59545686 6.49395944 15 10 C15.33 8.68 15.66 7.36 16 6 C19.20802508 7.60401254 19.63001669 10.80337227 21 14 C21.66 14.33 22.32 14.66 23 15 C24.03141467 28.77129586 24.03141467 28.77129586 20.625 33.125 C13.88660501 39.34505691 5.73169903 40.45107293 -3.1171875 40.82421875 C-5.57197665 40.97390102 -7.65356894 41.30287193 -10 42 C-14 37.25 -14 37.25 -14 35 C-12.9275 35.309375 -11.855 35.61875 -10.75 35.9375 C-8.89375 36.4634375 -8.89375 36.4634375 -7 37 C-6.360625 37.226875 -5.72125 37.45375 -5.0625 37.6875 C-2.28671612 38.10807332 0.27120828 37.598387 3.02734375 37.19140625 C5.50442693 36.9510556 7.61424494 37.32900639 10 38 C6.99382731 34.99382731 4.17618402 35.40414684 0 35 C0 34.67 0 34.34 0 34 C2.97 33.34 5.94 32.68 9 32 C9.42744381 27.32114742 9.42744381 27.32114742 7.75 23.125 C5.83656302 21.89493337 4.23288365 21.38497994 2 21 C2 20.34 2 19.68 2 19 C1.34 19 0.68 19 0 19 C0.33 17.68 0.66 16.36 1 15 C0.360625 14.79375 -0.27875 14.5875 -0.9375 14.375 C-3 13 -3 13 -3.75 9.875 C-3.87375 8.451875 -3.87375 8.451875 -4 7 C-3.34 6.67 -2.68 6.34 -2 6 C-1.27306096 4.02111039 -0.60183749 2.02045442 0 0 Z " fill="#CCA24D" transform="translate(93,149)"/>
<path d="M0 0 C12.76293453 -0.61099155 24.95323451 1.38348051 35.25 9.375 C40.24404368 14.14204169 42.58973275 18.02545668 43 25 C41.25721752 26.74278248 39.26539461 26.30313814 36.875 26.3125 C26.31121238 25.53436386 17.24673224 19.25015062 8.24560547 14.08569336 C5.96556517 12.7823641 5.96556517 12.7823641 3 13 C3.33 10.69 3.66 8.38 4 6 C4.804375 5.690625 5.60875 5.38125 6.4375 5.0625 C8.89080405 4.23664655 8.89080405 4.23664655 10 3 C6.7 2.34 3.4 1.68 0 1 C0 0.67 0 0.34 0 0 Z " fill="#B165F5" transform="translate(127,76)"/>
<path d="M0 0 C9.72973278 0.37422049 19.21152567 5.05365417 26 12 C34.14710665 22.55729237 34.14710665 22.55729237 34.125 30.0625 C34.12886719 31.37927734 34.12886719 31.37927734 34.1328125 32.72265625 C34 35 34 35 33 37 C28.38 37 23.76 37 19 37 C18.938125 35.39125 18.87625 33.7825 18.8125 32.125 C18.18809597 25.39531216 16.18839115 19.25720535 11.37109375 14.3359375 C9.95663427 13.17028656 8.48231369 12.07804632 7 11 C6.67 10.34 6.34 9.68 6 9 C4.845 8.505 3.69 8.01 2.5 7.5 C-1 6 -1 6 -2 4 C-1.0625 1.875 -1.0625 1.875 0 0 Z " fill="#BC68E2" transform="translate(97,138)"/>
<path d="M0 0 C3.40654184 2.14760246 5.77828524 4.11272577 7 8 C7.46090065 12.14810581 7.25512934 14.46933096 5.4375 18.25 C2.46940392 21.59862121 0.292174 22.7632719 -4 24 C-8.56377786 24 -10.37430059 23.53048428 -13.875 20.5625 C-17.27876445 16.45796052 -17.34144145 13.69455345 -17.28125 8.48046875 C-16.87903081 4.93311892 -15.67419608 3.31281823 -13 1 C-8.7619166 -1.58993986 -4.65218395 -1.30901532 0 0 Z " fill="#A656F4" transform="translate(135,116)"/>
<path d="M0 0 C1.1446875 0.12375 1.1446875 0.12375 2.3125 0.25 C8.69365071 10.40183067 7.57945425 23.69681324 7.3125 35.25 C3.70304402 34.55182056 0.12817084 33.77123618 -3.4375 32.875 C-4.40171875 32.64039063 -5.3659375 32.40578125 -6.359375 32.1640625 C-7.12765625 31.86242187 -7.8959375 31.56078125 -8.6875 31.25 C-11.01707323 24.26128032 -10.83767288 14.83593915 -7.875 8.0625 C-7.17920634 6.77309216 -6.45445069 5.49839418 -5.6875 4.25 C-4.9759375 2.9815625 -4.9759375 2.9815625 -4.25 1.6875 C-2.6875 0.25 -2.6875 0.25 0 0 Z " fill="#AF68EF" transform="translate(86.6875,106.75)"/>
<path d="M0 0 C-0.5625 1.9375 -0.5625 1.9375 -2 4 C-5.25 4.625 -5.25 4.625 -9 5 C-11.01416562 5.62256028 -13.02015519 6.27566653 -15 7 C-14.484375 7.4125 -13.96875 7.825 -13.4375 8.25 C-12.963125 8.8275 -12.48875 9.405 -12 10 C-12.3125 12.1875 -12.3125 12.1875 -13 14 C-12.34 14 -11.68 14 -11 14 C-11.33 14.99 -11.66 15.98 -12 17 C-12.29653909 19.31053371 -12.50545685 21.62184323 -12.71875 23.94140625 C-13 26 -13 26 -14 28 C-16.06640625 28.6328125 -16.06640625 28.6328125 -18.5625 29.125 C-19.38878906 29.29257813 -20.21507812 29.46015625 -21.06640625 29.6328125 C-21.70449219 29.75398438 -22.34257813 29.87515625 -23 30 C-23 30.66 -23 31.32 -23 32 C-25.375 32.1875 -25.375 32.1875 -28 32 C-30 29 -30 29 -30 25 C-31.32 25.33 -32.64 25.66 -34 26 C-32.58163643 20.8423143 -30.32608425 16.20024742 -27 12 C-26.34 12 -25.68 12 -25 12 C-24.67 11.01 -24.34 10.02 -24 9 C-17.26924647 3.68187376 -8.65023167 0 0 0 Z " fill="#C49E5D" transform="translate(75,138)"/>
<path d="M0 0 C0.99 0.33 1.98 0.66 3 1 C3 1.99 3 2.98 3 4 C3.66 4 4.32 4 5 4 C4.67 4.66 4.34 5.32 4 6 C4.33 6.33 4.66 6.66 5 7 C9.03061063 14.56130056 9.03061063 14.56130056 8.9375 18.9375 C8 21 8 21 5 23 C2.36679018 22.82157485 -0.09475999 22.54622947 -2.6875 22.125 C-3.38939453 22.02058594 -4.09128906 21.91617188 -4.81445312 21.80859375 C-6.54458829 21.54966196 -8.27254118 21.27622343 -10 21 C-10 21.66 -10 22.32 -10 23 C-9.34 23 -8.68 23 -8 23 C-8.33 23.99 -8.66 24.98 -9 26 C-12.74278215 24.5511811 -12.74278215 24.5511811 -13.875 22.125 C-14.02970669 19.4949862 -13.34109804 18.23516341 -12 16 C-11.67 15.34 -11.34 14.68 -11 14 C-11.66 14 -12.32 14 -13 14 C-13 12.35 -13 10.7 -13 9 C-13.66 9 -14.32 9 -15 9 C-15 8.34 -15 7.68 -15 7 C-10.45850577 4.47569551 -7.2795621 2.84471876 -2 3 C-1.34 2.01 -0.68 1.02 0 0 Z " fill="#D49B4C" transform="translate(75,138)"/>
<path d="M0 0 C0.33 0 0.66 0 1 0 C4.03229347 13.64532061 1.48701095 26.66122106 -5.4375 38.640625 C-7.3644768 41.55035997 -9.35108423 43.74063066 -12 46 C-11.67 44.35 -11.34 42.7 -11 41 C-11.66 41 -12.32 41 -13 41 C-13 40.34 -13 39.68 -13 39 C-14.423125 38.814375 -14.423125 38.814375 -15.875 38.625 C-19 38 -19 38 -21 36 C-21.33 36.66 -21.66 37.32 -22 38 C-23.65 38 -25.3 38 -27 38 C-23.9605301 34.58059636 -20.61875094 32.42725009 -16.70703125 30.1484375 C-14.84413578 29.09866896 -14.84413578 29.09866896 -14 27 C-14.7425 27.66 -15.485 28.32 -16.25 29 C-19 31 -19 31 -23 31 C-26.11584616 22.95073076 -26.33328851 15.56674915 -26 7 C-25.67 7 -25.34 7 -25 7 C-24.95101562 7.66386719 -24.90203125 8.32773438 -24.8515625 9.01171875 C-24.44915495 13.76429063 -23.8411109 17.58133385 -22 22 C-21.875 25.3125 -21.875 25.3125 -22 28 C-21.01 28.33 -20.02 28.66 -19 29 C-19 28.34 -19 27.68 -19 27 C-15.62902617 25.50178941 -13.79557881 25 -10 25 C-10.66 26.98 -11.32 28.96 -12 31 C-10.02 30.34 -8.04 29.68 -6 29 C-6 29.66 -6 30.32 -6 31 C-5.01 31 -4.02 31 -3 31 C-3.33 29.68 -3.66 28.36 -4 27 C-3.34 26.67 -2.68 26.34 -2 26 C-1.5720382 24.13690908 -1.5720382 24.13690908 -1.4375 22 C-1.09589041 18.09589041 -1.09589041 18.09589041 0 17 C0.13568319 13.33655389 0.16461426 10.49384279 -1 7 C-0.72230092 4.6593935 -0.39460023 2.32375692 0 0 Z " fill="#B463F2" transform="translate(178,119)"/>
<path d="M0 0 C5.08216416 2.39160667 8.7191697 5.87773129 11 11 C11.49103338 15.71290803 11.35791231 20.28085987 11 25 C8.24921116 25.91692961 6.64051087 26.10886083 3.8125 26.0625 C1.9253125 26.0315625 1.9253125 26.0315625 0 26 C-0.16435547 24.91332031 -0.16435547 24.91332031 -0.33203125 23.8046875 C-1.23801094 18.28042108 -2.43576801 14.0063577 -5 9 C-4.625 6.75 -4.625 6.75 -4 5 C-4.33 4.34 -4.66 3.68 -5 3 C-3.35 2.67 -1.7 2.34 0 2 C0 1.34 0 0.68 0 0 Z " fill="#C66AE7" transform="translate(118,147)"/>
<path d="M0 0 C-0.33 0.78375 -0.66 1.5675 -1 2.375 C-2.11866511 4.84332497 -2.11866511 4.84332497 -2 7 C-2 7.66 -2 8.32 -2 9 C-1.34 9.33 -0.68 9.66 0 10 C-0.33 10.66 -0.66 11.32 -1 12 C-0.34 12.33 0.32 12.66 1 13 C-1.97 12.505 -1.97 12.505 -5 12 C-5.66 13.98 -6.32 15.96 -7 18 C-5.68 18 -4.36 18 -3 18 C-2.67 17.34 -2.34 16.68 -2 16 C-1.113125 15.71125 -0.22625 15.4225 0.6875 15.125 C4.27278106 13.90735738 6.8866976 12.12270618 10 10 C10.66 10 11.32 10 12 10 C12 9.34 12 8.68 12 8 C12.99 8.33 13.98 8.66 15 9 C7.68913898 15.8539322 0.56821732 20.15247498 -9.625 20.125 C-11.06746094 20.12886719 -11.06746094 20.12886719 -12.5390625 20.1328125 C-15 20 -15 20 -17 19 C-17.5 16.5 -17.5 16.5 -17 13 C-13.57209855 8.52541109 -5.98654911 0 0 0 Z " fill="#AF66F6" transform="translate(151,157)"/>
<path d="M0 0 C0.33 0 0.66 0 1 0 C1.33 2.64 1.66 5.28 2 8 C2.763125 7.773125 3.52625 7.54625 4.3125 7.3125 C7 7 7 7 8.8125 8.25 C10 10 10 10 10 13 C0.96534055 15.97951535 -7.14965939 17.05314806 -16.0859375 13.0703125 C-17.75 12.0625 -17.75 12.0625 -20 10 C-20 9.01 -20 8.02 -20 7 C-13.25 5.875 -13.25 5.875 -11 7 C-10.67 6.01 -10.34 5.02 -10 4 C-9.608125 4.66 -9.21625 5.32 -8.8125 6 C-7.14583333 8.29166667 -7.14583333 8.29166667 -4.3125 8.25 C-3.549375 8.1675 -2.78625 8.085 -2 8 C-1.34 5.36 -0.68 2.72 0 0 Z " fill="#948848" transform="translate(68,186)"/>
<path d="M0 0 C7.55528058 0.2824404 13.30055702 1.53349923 20 5 C21.06927734 5.48339844 21.06927734 5.48339844 22.16015625 5.9765625 C26.62495311 8.02953451 29.67239739 10.29209994 33 14 C33.5053125 14.44859375 34.010625 14.8971875 34.53125 15.359375 C36.32620053 17.36437293 36.90713502 19.12344363 37.6875 21.6875 C37.93886719 22.49574219 38.19023438 23.30398437 38.44921875 24.13671875 C38.63097656 24.75160156 38.81273437 25.36648437 39 26 C36.44971017 24.72485508 36.06918289 23.59658703 35 21 C35 20.01 35 19.02 35 18 C34.34 18 33.68 18 33 18 C32.505 19.485 32.505 19.485 32 21 C31.34 20.67 30.68 20.34 30 20 C30 18.35 30 16.7 30 15 C29.01 14.67 28.02 14.34 27 14 C26.5359375 12.7625 26.5359375 12.7625 26.0625 11.5 C25.711875 10.675 25.36125 9.85 25 9 C23.12816413 8.15688424 23.12816413 8.15688424 21 8 C19.66666667 7.66666667 18.33333333 7.33333333 17 7 C17 6.34 17 5.68 17 5 C16.01 5.495 16.01 5.495 15 6 C15 6.99 15 7.98 15 9 C13.68 8.34 12.36 7.68 11 7 C10.34 11.29 9.68 15.58 9 20 C8.34 19.67 7.68 19.34 7 19 C6.64080332 17.33871537 6.31088368 15.67099977 6 14 C5.649375 13.29875 5.29875 12.5975 4.9375 11.875 C4 10 4 10 4 7 C3.34 7 2.68 7 2 7 C2.33 6.34 2.66 5.68 3 5 C2.67 4.67 2.34 4.34 2 4 C2 3.01 2 2.02 2 1 C1.34 0.67 0.68 0.34 0 0 Z " fill="#D19D4A" transform="translate(76,138)"/>
<path d="M0 0 C1.97347668 2.1144393 3.14082832 4.24252334 4 7 C3.75 9.9375 3.75 9.9375 3 12 C-2.56890517 11.52013969 -7.67067568 10.70084819 -13 9 C-13.375 6.25 -13.375 6.25 -13 3 C-8.76057348 -1.03262523 -5.55154572 -1.95332164 0 0 Z " fill="#E80A03" transform="translate(80,147)"/>
<path d="M0 0 C0.99 0 1.98 0 3 0 C2.67 3.63 2.34 7.26 2 11 C2.99 11 3.98 11 5 11 C8.35691832 11.27796139 11.71165245 11.57596862 15.06640625 11.87890625 C17.93467415 12.2342138 17.93467415 12.2342138 20 11 C20 12.32 20 13.64 20 15 C10.07630285 16.24354021 2.62854236 16.99434794 -6 11 C-6 8.36 -6 5.72 -6 3 C-5.38125 2.87625 -4.7625 2.7525 -4.125 2.625 C-1.80879168 2.12802644 -1.80879168 2.12802644 0 0 Z " fill="#C99E4A" transform="translate(83,172)"/>
<path d="M0 0 C2.875 2.3125 2.875 2.3125 5 5 C4.8984375 7.0546875 4.8984375 7.0546875 4 9 C0.23095656 11.15707652 -3.7619981 12.12632672 -8.0625 11.6875 C-8.701875 11.460625 -9.34125 11.23375 -10 11 C-9.65604292 2.79662354 -9.65604292 2.79662354 -7.25 -0.125 C-4.25322474 -1.2904126 -3.00245383 -1.1716893 0 0 Z " fill="#150CC3" transform="translate(57,157)"/>
<path d="M0 0 C0.33 0.33 0.66 0.66 1 1 C0.57731286 5.98770821 -0.2327125 10.28723333 -2 15 C-4.25 15.3125 -4.25 15.3125 -7 15 C-9.375 12.9375 -9.375 12.9375 -11 10 C-11.0625 6.375 -11.0625 6.375 -10 3 C-6.77707008 0.22469924 -4.20672956 -0.4674144 0 0 Z " fill="#0D7402" transform="translate(68,180)"/>
<path d="M0 0 C3 1 3 1 4.4375 3.8125 C4.953125 4.864375 5.46875 5.91625 6 7 C6.639375 7.639375 7.27875 8.27875 7.9375 8.9375 C10.71316628 11.71316628 12.21605769 14.4958276 14 18 C14 18.99 14 19.98 14 21 C14.66 21 15.32 21 16 21 C16.33 22.65 16.66 24.3 17 26 C17.66 26 18.32 26 19 26 C20.625 27.1875 20.625 27.1875 22 29 C22.1875 31.6875 22.1875 31.6875 22 34 C19.56444094 33.62527382 18.32257737 33.36990853 16.67553711 31.48120117 C16.2966333 30.84158447 15.91772949 30.20196777 15.52734375 29.54296875 C15.10259766 28.84236328 14.67785156 28.14175781 14.24023438 27.41992188 C13.81033203 26.68322266 13.38042969 25.94652344 12.9375 25.1875 C12.0731211 23.74258728 11.20727685 22.29854999 10.33984375 20.85546875 C9.93620605 20.17871094 9.53256836 19.50195312 9.11669922 18.8046875 C7.86035395 16.77431928 6.45126025 14.89432413 5 13 C4.30341637 11.34561387 3.63903117 9.67745682 3 8 C2.46375 6.948125 1.9275 5.89625 1.375 4.8125 C0 2 0 2 0 0 Z " fill="#724E36" transform="translate(74,183)"/>
<path d="M0 0 C2.375 1.8125 2.375 1.8125 4 4 C3.6015625 6.13671875 3.6015625 6.13671875 3 8 C-5.42857143 10.42857143 -5.42857143 10.42857143 -10 9 C-9.51622419 2.5899705 -9.51622419 2.5899705 -7.25 0 C-4.29428132 -1.31365275 -3.01638894 -1.13114585 0 0 Z " fill="#292110" transform="translate(103,151)"/>
<path d="M0 0 C-0.5625 1.9375 -0.5625 1.9375 -2 4 C-5.25 4.625 -5.25 4.625 -9 5 C-12.30164047 5.76554914 -12.30164047 5.76554914 -15 7 C-15.33 7.99 -15.66 8.98 -16 10 C-17.63183107 11.05589069 -19.30792999 12.0436126 -21 13 C-23.36231116 14.62867416 -25.67721604 16.31484301 -28 18 C-28.66 17.34 -29.32 16.68 -30 16 C-28.625 14 -28.625 14 -27 12 C-26.34 12 -25.68 12 -25 12 C-24.67 11.01 -24.34 10.02 -24 9 C-17.26924647 3.68187376 -8.65023167 0 0 0 Z " fill="#CEAC6A" transform="translate(75,138)"/>
<path d="M0 0 C-0.99 0.33 -1.98 0.66 -3 1 C-3.66 4.3 -4.32 7.6 -5 11 C-7.97 11 -10.94 11 -14 11 C-14.33 11.66 -14.66 12.32 -15 13 C-20 7.25 -20 7.25 -20 5 C-18.02 5 -16.04 5 -14 5 C-14 4.34 -14 3.68 -14 3 C-11.36 3.33 -8.72 3.66 -6 4 C-6 2.68 -6 1.36 -6 0 C-3.50907189 -1.24546405 -2.58919267 -0.7767578 0 0 Z " fill="#B2984D" transform="translate(62,182)"/>
<path d="M0 0 C2.97 0 5.94 0 9 0 C9.33 0.66 9.66 1.32 10 2 C8.329375 2.12375 8.329375 2.12375 6.625 2.25 C3.00581594 2.59472764 3.00581594 2.59472764 1.5625 4.8125 C0.83397264 7.26921798 0.83397264 7.26921798 1 11 C6.94 10.505 6.94 10.505 13 10 C12.67 10.66 12.34 11.32 12 12 C10.02 12 8.04 12 6 12 C6 12.66 6 13.32 6 14 C5.01 14 4.02 14 3 14 C3 15.65 3 17.3 3 19 C4.65 19.33 6.3 19.66 8 20 C7.67 20.99 7.34 21.98 7 23 C4.525 22.01 4.525 22.01 2 21 C2 20.34 2 19.68 2 19 C1.34 19 0.68 19 0 19 C0.33 17.68 0.66 16.36 1 15 C0.360625 14.79375 -0.27875 14.5875 -0.9375 14.375 C-3 13 -3 13 -3.75 9.875 C-3.8325 8.92625 -3.915 7.9775 -4 7 C-3.34 6.67 -2.68 6.34 -2 6 C-1.27306096 4.02111039 -0.60183749 2.02045442 0 0 Z " fill="#C19F5A" transform="translate(93,149)"/>
<path d="M0 0 C12.76293453 -0.61099155 24.95323451 1.38348051 35.25 9.375 C40.29920131 14.19469216 42.43997842 17.99973026 43 25 C41 22 41 22 41 20 C40.01 19.67 39.02 19.34 38 19 C36 16 36 16 36 12 C34.68 12.33 33.36 12.66 32 13 C32 12.01 32 11.02 32 10 C30.68 9.34 29.36 8.68 28 8 C28 7.34 28 6.68 28 6 C27.05125 5.855625 26.1025 5.71125 25.125 5.5625 C22 5 22 5 20 4 C18.50386786 3.81873784 17.00256314 3.67899619 15.5 3.5625 C10.2401804 3.08712272 5.15450151 2.12960352 0 1 C0 0.67 0 0.34 0 0 Z " fill="#A96CDF" transform="translate(127,76)"/>
<path d="M0 0 C0.99 0 1.98 0 3 0 C5.10575375 5.52760359 6.37851209 10.06997733 6 16 C11.445 15.505 11.445 15.505 17 15 C16.814375 13.948125 16.62875 12.89625 16.4375 11.8125 C16.04920669 8.42880118 16.11752515 6.23574112 17 3 C19.18085057 6.27127586 19.24887859 7.27376723 19.1875 11.0625 C19.18105469 11.94035156 19.17460937 12.81820312 19.16796875 13.72265625 C19 16 19 16 18 18 C13.38 18 8.76 18 4 18 C3.896875 16.329375 3.79375 14.65875 3.6875 12.9375 C3.25408631 8.00423246 2.24346955 4.38939694 0 0 Z " fill="#C27DBD" transform="translate(112,157)"/>
<path d="M0 0 C0.66 0.66 1.32 1.32 2 2 C3.98356483 2.71408334 5.98315437 3.38617742 8 4 C7.71466705 7.43613726 7.1822282 8.8072032 4.77734375 11.3515625 C-7.27491409 21 -7.27491409 21 -16 21 C-16 20.34 -16 19.68 -16 19 C-14.741875 18.71125 -13.48375 18.4225 -12.1875 18.125 C-9.1460601 17.42696461 -7.69330122 16.79553415 -5 15 C-4.01 15 -3.02 15 -2 15 C-1.67 13.68 -1.34 12.36 -1 11 C0.32 10.67 1.64 10.34 3 10 C2.34 8.35 1.68 6.7 1 5 C2.32 5.33 3.64 5.66 5 6 C5 5.34 5 4.68 5 4 C2.525 3.505 2.525 3.505 0 3 C0 2.01 0 1.02 0 0 Z " fill="#B46FDE" transform="translate(129,88)"/>
<path d="M0 0 C0.99 0.99 1.98 1.98 3 3 C-1.29 2.67 -5.58 2.34 -10 2 C-10.61875 2.99 -11.2375 3.98 -11.875 5 C-12.57625 5.99 -13.2775 6.98 -14 8 C-14.66 8 -15.32 8 -16 8 C-15.36033945 14.2694091 -15.36033945 14.2694091 -13 20 C-9.97017694 21.37189827 -9.97017694 21.37189827 -7 22 C-8.6875 22.8125 -8.6875 22.8125 -11 23 C-16.78133224 18.02536528 -16.78133224 18.02536528 -17.23828125 13.79296875 C-17.43808467 6.77881719 -17.43808467 6.77881719 -15.3125 3 C-10.18889757 -1.43122372 -6.39860718 -1.34164344 0 0 Z " fill="#9D66DC" transform="translate(135,116)"/>
<path d="M0 0 C4.75 0.875 4.75 0.875 7 2 C8.28317892 5.84953676 8.06643637 8.94738135 8 13 C5.4065835 12.62951193 3.91934413 11.94398898 1.75 10.4375 C-0.81231463 6.86856177 -0.28861266 4.32918986 0 0 Z " fill="#2777D8" transform="translate(68,169)"/>
<path d="M0 0 C2.53910197 0.38520564 3.72751123 0.70097943 5.484375 2.62890625 C5.90203125 3.26699219 6.3196875 3.90507812 6.75 4.5625 C7.17796875 5.20316406 7.6059375 5.84382812 8.046875 6.50390625 C8.36140625 6.99761719 8.6759375 7.49132812 9 8 C10.98 7.67 12.96 7.34 15 7 C14.46375 7.556875 13.9275 8.11375 13.375 8.6875 C12.92125 9.450625 12.4675 10.21375 12 11 C13.58506089 16.23522968 16.79154541 20.73134935 19.63671875 25.35546875 C20.08660156 26.22816406 20.53648438 27.10085937 21 28 C20.67 28.66 20.34 29.32 20 30 C19.67 29.01 19.34 28.02 19 27 C18.34 27 17.68 27 17 27 C16.505 24.525 16.505 24.525 16 22 C15.34 22 14.68 22 14 22 C13.38125 20.700625 13.38125 20.700625 12.75 19.375 C10.48833491 15.01321733 7.91353249 11.12233991 4.8125 7.3125 C3 5 3 5 2 2 C1.34 1.34 0.68 0.68 0 0 Z " fill="#9A785B" transform="translate(74,182)"/>
<path d="M0 0 C0.99 0.33 1.98 0.66 3 1 C-4.31086102 7.8539322 -11.43178268 12.15247498 -21.625 12.125 C-23.06746094 12.12886719 -23.06746094 12.12886719 -24.5390625 12.1328125 C-27 12 -27 12 -29 11 C-29 9.35 -29 7.7 -29 6 C-28.67 7.32 -28.34 8.64 -28 10 C-23.71 10 -19.42 10 -15 10 C-14.67 9.34 -14.34 8.68 -14 8 C-13.113125 7.71125 -12.22625 7.4225 -11.3125 7.125 C-7.72721894 5.90735738 -5.1133024 4.12270618 -2 2 C-1.34 2 -0.68 2 0 2 C0 1.34 0 0.68 0 0 Z " fill="#A570DC" transform="translate(163,165)"/>
<path d="M0 0 C0 2.31 0 4.62 0 7 C-2.97 6.505 -2.97 6.505 -6 6 C-5.814375 6.928125 -5.62875 7.85625 -5.4375 8.8125 C-5 12 -5 12 -6 15 C-8.31 15.33 -10.62 15.66 -13 16 C-11.70127848 11.18626046 -9.87520666 8.27416824 -6.5 4.625 C-5.7059375 3.75101562 -4.911875 2.87703125 -4.09375 1.9765625 C-2 0 -2 0 0 0 Z " fill="#BE71D9" transform="translate(102,87)"/>
<path d="M0 0 C1.77706209 2.66559313 2.87548273 5.0280615 4 8 C0.875 9.25 0.875 9.25 -3 10 C-6.4375 8.3125 -6.4375 8.3125 -9 6 C-9 5.01 -9 4.02 -9 3 C-2.25 1.875 -2.25 1.875 0 3 C0 2.01 0 1.02 0 0 Z " fill="#A48A52" transform="translate(57,190)"/>
<path d="M0 0 C1.0725 0.309375 2.145 0.61875 3.25 0.9375 C4.4875 1.288125 5.725 1.63875 7 2 C7.9590625 2.3403125 7.9590625 2.3403125 8.9375 2.6875 C11.71328388 3.10807332 14.27120828 2.598387 17.02734375 2.19140625 C19.50442693 1.9510556 21.61424494 2.32900639 24 3 C24 2.01 24 1.02 24 0 C25.32 0.66 26.64 1.32 28 2 C22.36979423 5.01150541 17.33508918 5.47582404 10.98828125 5.7890625 C8.50367896 5.96444619 6.37620247 6.29465523 4 7 C0 2.25 0 2.25 0 0 Z " fill="#B89655" transform="translate(79,184)"/>
<path d="M0 0 C0.99 0.33 1.98 0.66 3 1 C3.73046875 3.06640625 3.73046875 3.06640625 4.1875 5.5625 C4.34605469 6.38878906 4.50460938 7.21507812 4.66796875 8.06640625 C4.77753906 8.70449219 4.88710937 9.34257812 5 10 C5.99 9.34 6.98 8.68 8 8 C10.1875 8.375 10.1875 8.375 12 9 C10.35 10.65 8.7 12.3 7 14 C6.2575 13.649375 5.515 13.29875 4.75 12.9375 C1.69799829 11.89704487 0.98025586 12.18720295 -2 13 C-4.00946222 12.72949547 -6.01354224 12.40632091 -8 12 C-8 11.67 -8 11.34 -8 11 C-5.03 10.34 -2.06 9.68 1 9 C1.26932521 4.34947128 1.26932521 4.34947128 0 0 Z " fill="#C5A560" transform="translate(101,172)"/>
<path d="M0 0 C6.44534366 2.4643961 11.26126537 4.87704365 16 10 C16.50789063 10.44988281 17.01578125 10.89976562 17.5390625 11.36328125 C19.32704834 13.36639907 19.90884622 15.12906616 20.6875 17.6875 C20.93886719 18.49574219 21.19023438 19.30398437 21.44921875 20.13671875 C21.63097656 20.75160156 21.81273438 21.36648437 22 22 C19.44971017 20.72485508 19.06918289 19.59658703 18 17 C18 16.01 18 15.02 18 14 C17.34 14 16.68 14 16 14 C15.67 14.99 15.34 15.98 15 17 C14.34 16.67 13.68 16.34 13 16 C13 14.35 13 12.7 13 11 C12.01 10.67 11.02 10.34 10 10 C9.690625 9.175 9.38125 8.35 9.0625 7.5 C8.711875 6.675 8.36125 5.85 8 5 C6.12816413 4.15688424 6.12816413 4.15688424 4 4 C2.66666667 3.66666667 1.33333333 3.33333333 0 3 C0 2.01 0 1.02 0 0 Z " fill="#C79A66" transform="translate(93,142)"/>
<path d="M0 0 C10.18018456 0.64319249 10.18018456 0.64319249 14 4 C15.3125 7.1875 15.3125 7.1875 16 10 C15.071875 9.360625 14.14375 8.72125 13.1875 8.0625 C10.15780057 5.91377907 10.15780057 5.91377907 7 5 C3.26934327 7.37516866 3.26934327 7.37516866 1.3125 11.1875 C1.209375 11.785625 1.10625 12.38375 1 13 C0.01 13.495 0.01 13.495 -1 14 C-1.65213292 16.02463255 -1.65213292 16.02463255 -2 18 C-2.66 18 -3.32 18 -4 18 C-3.84238796 11.69551854 -0.32392365 8.18412011 4 4 C4.66 3.67 5.32 3.34 6 3 C4.02 2.34 2.04 1.68 0 1 C0 0.67 0 0.34 0 0 Z " fill="#B578D3" transform="translate(159,101)"/>
<path d="M0 0 C3 1 3 1 4.4375 3.8125 C4.953125 4.864375 5.46875 5.91625 6 7 C6.639375 7.639375 7.27875 8.27875 7.9375 8.9375 C10.71480416 11.71480416 12.24146224 14.48292447 14 18 C13.67 18.66 13.34 19.32 13 20 C11.125 19.75 11.125 19.75 9 19 C7.875 17.0625 7.875 17.0625 7 15 C6.34 14.34 5.68 13.68 5 13 C4.30959426 11.34302621 3.6469365 9.6744239 3 8 C2.46375 6.948125 1.9275 5.89625 1.375 4.8125 C0 2 0 2 0 0 Z " fill="#805835" transform="translate(74,183)"/>
<path d="M0 0 C0.33 0 0.66 0 1 0 C3.52549177 11.36471296 2.60351067 24.00753628 -3.1875 34.25 C-4.0846875 35.61125 -4.0846875 35.61125 -5 37 C-6.21994269 33.34017193 -5.49026663 32.41884698 -4 29 C-4 28.34 -4 27.68 -4 27 C-3.34 26.67 -2.68 26.34 -2 26 C-1.5720382 24.13690908 -1.5720382 24.13690908 -1.4375 22 C-1.09589041 18.09589041 -1.09589041 18.09589041 0 17 C0.13568319 13.33655389 0.16461426 10.49384279 -1 7 C-0.72230092 4.6593935 -0.39460023 2.32375692 0 0 Z " fill="#B572D9" transform="translate(178,119)"/>
<path d="M0 0 C3.2910841 3.60957611 4.54663921 6.12637153 5 11 C4.34 11 3.68 11 3 11 C1.375 9 1.375 9 0 7 C-1.98 7.33 -3.96 7.66 -6 8 C-5.67 5.69 -5.34 3.38 -5 1 C-3.35 0.67 -1.7 0.34 0 0 Z " fill="#B28E4A" transform="translate(75,187)"/>
<path d="M0 0 C2 0.8125 2 0.8125 3.25 2.875 C3.4975 3.514375 3.745 4.15375 4 4.8125 C0.2722114 7.2976924 -2.91322812 8.19690535 -7.375 7.375 C-7.91125 7.189375 -8.4475 7.00375 -9 6.8125 C-3.24598269 -0.30431088 -3.24598269 -0.30431088 0 0 Z " fill="#CA6BE5" transform="translate(168,105.1875)"/>
<path d="M0 0 C2.97 0.495 2.97 0.495 6 1 C6.33 2.98 6.66 4.96 7 7 C4.91589342 6.91266027 2.83265331 6.80447722 0.75 6.6875 C-0.99023438 6.60048828 -0.99023438 6.60048828 -2.765625 6.51171875 C-6 6 -6 6 -10 3 C-6.7 3.33 -3.4 3.66 0 4 C0 2.68 0 1.36 0 0 Z " fill="#B266F5" transform="translate(162,95)"/>
<path d="M0 0 C0.33 0 0.66 0 1 0 C1.04898438 0.66386719 1.09796875 1.32773438 1.1484375 2.01171875 C1.55084505 6.76429063 2.1588891 10.58133385 4 15 C4.125 18.3125 4.125 18.3125 4 21 C4.99 21.33 5.98 21.66 7 22 C7 21.34 7 20.68 7 20 C8.98 19.67 10.96 19.34 13 19 C11.70769855 21.58460291 10.64134313 21.89944036 8 23 C6.33712526 23.35176196 4.67068661 23.68743777 3 24 C-0.11584616 15.95073076 -0.33328851 8.56674915 0 0 Z " fill="#AE6ED8" transform="translate(152,126)"/>
<path d="M0 0 C0.99 0.33 1.98 0.66 3 1 C3 1.99 3 2.98 3 4 C3.66 4 4.32 4 5 4 C4 6 4 6 3 7 C0.34536879 7.45459858 -2.32189138 7.70243238 -5 8 C-5 7.34 -5 6.68 -5 6 C-6.32 6 -7.64 6 -9 6 C-9 5.34 -9 4.68 -9 4 C-7.88625 3.896875 -6.7725 3.79375 -5.625 3.6875 C-4.42875 3.460625 -3.2325 3.23375 -2 3 C-1.34 2.01 -0.68 1.02 0 0 Z " fill="#CBA34B" transform="translate(75,138)"/>
<path d="M0 0 C-0.99 0.495 -0.99 0.495 -2 1 C-2 1.66 -2 2.32 -2 3 C2.29 2.34 6.58 1.68 11 1 C7.40177206 4.59822794 1.91969992 4.61143771 -3 5 C-5.63023154 4.64113313 -7.52605169 4.01206976 -10 3 C-6.1865669 0.45771127 -4.5252563 -0.11908569 0 0 Z " fill="#917C55" transform="translate(66,197)"/>
<path d="M0 0 C1.65 0 3.3 0 5 0 C4.731875 1.051875 4.46375 2.10375 4.1875 3.1875 C3.5625 7.14583333 3.5625 7.14583333 6.4375 9.9375 C7.283125 10.618125 8.12875 11.29875 9 12 C6.69 12.66 4.38 13.32 2 14 C0.55022106 11.65887549 -0.04314411 10.4203071 0.2421875 7.640625 C0.45101562 6.85171875 0.65984375 6.0628125 0.875 5.25 C1.07867187 4.45078125 1.28234375 3.6515625 1.4921875 2.828125 C1.65976563 2.22484375 1.82734375 1.6215625 2 1 C1.34 0.67 0.68 0.34 0 0 Z " fill="#C8A55E" transform="translate(84,171)"/>
<path d="M0 0 C0.33 1.32 0.66 2.64 1 4 C0.01 4.33 -0.98 4.66 -2 5 C-2 6.98 -2 8.96 -2 11 C-3.32 11.33 -4.64 11.66 -6 12 C-6.33 11.34 -6.66 10.68 -7 10 C-6.67 9.01 -6.34 8.02 -6 7 C-7.32 6.67 -8.64 6.34 -10 6 C-6.62902617 4.50178941 -4.79557881 4 -1 4 C-0.67 2.68 -0.34 1.36 0 0 Z " fill="#B5946F" transform="translate(62,162)"/>
<path d="M0 0 C1.5625 1.6875 1.5625 1.6875 3 4 C2.6875 6.75 2.6875 6.75 2 9 C-7.41002278 8.03644647 -7.41002278 8.03644647 -12 7 C-12 6.67 -12 6.34 -12 6 C-4.57142857 5.85714286 -4.57142857 5.85714286 -1 7 C-0.67 4.69 -0.34 2.38 0 0 Z " fill="#CB270A" transform="translate(81,150)"/>
<path d="M0 0 C4.75 0.875 4.75 0.875 7 2 C8.28317892 5.84953676 8.06643637 8.94738135 8 13 C7.01 12.67 6.02 12.34 5 12 C5.66 12 6.32 12 7 12 C5.37418243 7.03690704 5.37418243 7.03690704 1.8125 3.5625 C1.214375 3.376875 0.61625 3.19125 0 3 C0 2.01 0 1.02 0 0 Z " fill="#81B4CC" transform="translate(68,169)"/>
<path d="M0 0 C0.66 0.33 1.32 0.66 2 1 C1.67 2.32 1.34 3.64 1 5 C1.66 5.33 2.32 5.66 3 6 C3.12375 6.969375 3.2475 7.93875 3.375 8.9375 C3.6491645 12.11582828 3.6491645 12.11582828 6.0625 13.375 C6.701875 13.58125 7.34125 13.7875 8 14 C5.625 14.1875 5.625 14.1875 3 14 C1 11 1 11 1 7 C-0.32 7.33 -1.64 7.66 -3 8 C-1.125 2.25 -1.125 2.25 0 0 Z " fill="#BCA07E" transform="translate(44,156)"/>
<path d="M0 0 C0.33 0.66 0.66 1.32 1 2 C0.030625 2.28875 -0.93875 2.5775 -1.9375 2.875 C-5.10664203 3.64214682 -5.10664203 3.64214682 -6 6 C-7.32 5.67 -8.64 5.34 -10 5 C-7.09183307 -0.15538684 -5.93901822 -1.6751077 0 0 Z " fill="#493B2A" transform="translate(103,151)"/>
<path d="M0 0 C0.66 0.33 1.32 0.66 2 1 C1.01 1.33 0.02 1.66 -1 2 C-2.21869929 4.50447516 -2.21869929 4.50447516 -3 7 C-6 7 -9 7 -12 7 C-10.56542672 6.0165504 -9.12722594 5.03839079 -7.6875 4.0625 C-6.88699219 3.51722656 -6.08648437 2.97195312 -5.26171875 2.41015625 C-3 1 -3 1 0 0 Z " fill="#C072DD" transform="translate(114,79)"/>
<path d="M0 0 C-0.75 2.4375 -0.75 2.4375 -2 5 C-2.598125 5.144375 -3.19625 5.28875 -3.8125 5.4375 C-6.6679755 6.17176513 -8.0893415 7.58189638 -10.25 9.5625 C-10.95640625 10.20316406 -11.6628125 10.84382812 -12.390625 11.50390625 C-12.92171875 11.99761719 -13.4528125 12.49132812 -14 13 C-14.66 12.67 -15.32 12.34 -16 12 C-4.62247839 0 -4.62247839 0 0 0 Z " fill="#A672E1" transform="translate(151,157)"/>
<path d="M0 0 C7.75 0.75 7.75 0.75 10 3 C6.7 2.67 3.4 2.34 0 2 C0 2.66 0 3.32 0 4 C0.99 4.33 1.98 4.66 3 5 C3.33 5.99 3.66 6.98 4 8 C-0.875 6.25 -0.875 6.25 -2 4 C-1.0625 1.875 -1.0625 1.875 0 0 Z " fill="#B376CD" transform="translate(97,138)"/>
<path d="M0 0 C1.4540625 0.495 1.4540625 0.495 2.9375 1 C7.29766837 2.26873752 11.49554566 2.18385528 16 2 C16 2.66 16 3.32 16 4 C14.948125 3.95875 13.89625 3.9175 12.8125 3.875 C9.25989827 3.99147875 7.15133359 4.47208068 4 6 C4 5.01 4 4.02 4 3 C2.68 2.67 1.36 2.34 0 2 C0 1.34 0 0.68 0 0 Z " fill="#DB9649" transform="translate(64,143)"/>
<path d="M0 0 C0.33 1.32 0.66 2.64 1 4 C-4.27638208 7.76884434 -8.44638668 10 -15 10 C-15 9.34 -15 8.68 -15 8 C-13.741875 7.71125 -12.48375 7.4225 -11.1875 7.125 C-8.1460601 6.42696461 -6.69330122 5.79553415 -4 4 C-3.01 4 -2.02 4 -1 4 C-0.67 2.68 -0.34 1.36 0 0 Z " fill="#B879DA" transform="translate(128,99)"/>
<path d="M0 0 C-0.5625 1.9375 -0.5625 1.9375 -2 4 C-5.25 4.625 -5.25 4.625 -9 5 C-11.01416562 5.62256028 -13.02015519 6.27566653 -15 7 C-15 6.34 -15 5.68 -15 5 C-12.35261084 3.5393715 -11.10551666 3 -8 3 C-8 2.34 -8 1.68 -8 1 C-5.23735711 0.40267181 -2.83967231 0 0 0 Z " fill="#CBA768" transform="translate(75,138)"/>
<path d="M0 0 C2.93479802 2.80719811 3.93422265 4.12845006 4.25 8.3125 C3.9886592 12.16727682 3.23869739 13.92179109 1 17 C-0.37897229 14.24205543 0.38163152 12.13208933 0.80859375 9.17578125 C1.09063232 5.96975102 0.59153004 3.15482687 0 0 Z " fill="#9B64DA" transform="translate(138,119)"/>
<path d="M0 0 C0.66 0.66 1.32 1.32 2 2 C1.3125 3.9375 1.3125 3.9375 0 6 C-2.625 6.75 -2.625 6.75 -5 7 C-5 3 -5 3 -4 1 C-2.0625 0.25 -2.0625 0.25 0 0 Z " fill="#CDA352" transform="translate(59,147)"/>
<path d="M0 0 C2.20914 3.31371 2.22481553 4.3446021 2.125 8.1875 C2.10695312 9.08855469 2.08890625 9.98960937 2.0703125 10.91796875 C2.03550781 11.94857422 2.03550781 11.94857422 2 13 C0.35 13 -1.3 13 -3 13 C-2.01 12.67 -1.02 12.34 0 12 C-0.2784375 10.4221875 -0.2784375 10.4221875 -0.5625 8.8125 C-0.95079331 5.42880118 -0.88247485 3.23574112 0 0 Z " fill="#C077D2" transform="translate(129,160)"/>
<path d="M0 0 C0 0.99 0 1.98 0 3 C-1.63631892 4.04892238 -3.30485863 5.04906703 -5 6 C-5.33 6.66 -5.66 7.32 -6 8 C-7.65 8 -9.3 8 -11 8 C-7.72291137 4.32966073 -4.28477792 2.30718811 0 0 Z " fill="#A571E3" transform="translate(162,149)"/>
<path d="M0 0 C0.66 0 1.32 0 2 0 C1.8125 2.8125 1.8125 2.8125 1 6 C-1.5625 7.875 -1.5625 7.875 -4 9 C-4.66 8.34 -5.32 7.68 -6 7 C-4.625 5 -4.625 5 -3 3 C-2.34 3 -1.68 3 -1 3 C-0.67 2.01 -0.34 1.02 0 0 Z " fill="#D2B981" transform="translate(51,147)"/>
<path d="M0 0 C1.25541557 3.76624671 0.37061958 5.37188934 -1 9 C-2.65 9 -4.3 9 -6 9 C-6.66 7.68 -7.32 6.36 -8 5 C-6.02 5.66 -4.04 6.32 -2 7 C-1.855625 6.21625 -1.71125 5.4325 -1.5625 4.625 C-1 2 -1 2 0 0 Z " fill="#1C6506" transform="translate(67,186)"/>
<path d="M0 0 C1.65 0.33 3.3 0.66 5 1 C4.3125 2.9375 4.3125 2.9375 3 5 C0.375 5.75 0.375 5.75 -2 6 C-1.34 4.02 -0.68 2.04 0 0 Z " fill="#0104F8" transform="translate(52,158)"/>
<path d="M0 0 C1.32 0.33 2.64 0.66 4 1 C4.33 2.32 4.66 3.64 5 5 C2.69 5.33 0.38 5.66 -2 6 C-1.34 4.02 -0.68 2.04 0 0 Z " fill="#C876E4" transform="translate(91,97)"/>
<path d="M0 0 C1.75091019 0.08754551 3.50079551 0.19573373 5.25 0.3125 C6.22453125 0.37050781 7.1990625 0.42851562 8.203125 0.48828125 C11 1 11 1 15 4 C10.71 3.67 6.42 3.34 2 3 C2 2.34 2 1.68 2 1 C1.34 0.67 0.68 0.34 0 0 Z " fill="#C8908D" transform="translate(76,138)"/>
<path d="M0 0 C2.625 -0.1875 2.625 -0.1875 5 0 C6.5625 2.8125 6.5625 2.8125 8 6 C7.67 6.99 7.34 7.98 7 9 C5.515 6.03 5.515 6.03 4 3 C2.02 3 0.04 3 -2 3 C-1.34 2.01 -0.68 1.02 0 0 Z " fill="#AB7BDC" transform="translate(84,107)"/>
<path d="M0 0 C1.75070517 0.11470137 3.50057536 0.24219028 5.25 0.375 C6.22453125 0.44460937 7.1990625 0.51421875 8.203125 0.5859375 C10.89633189 0.98465249 12.66963279 1.63507063 15 3 C11.6787242 4.10709193 10.30440012 3.8767476 6.9375 3.1875 C6.05964844 3.01605469 5.18179688 2.84460938 4.27734375 2.66796875 C2 2 2 2 0 0 Z " fill="#AA6DE7" transform="translate(152,98)"/>
<path d="M0 0 C4.20335178 2.55203501 5.87918396 5.67981918 8 10 C7.67 10.66 7.34 11.32 7 12 C5.68 11.67 4.36 11.34 3 11 C2.87625 9.9275 2.7525 8.855 2.625 7.75 C2.10356064 4.62136385 1.59911746 2.66519576 0 0 Z " fill="#875E43" transform="translate(80,191)"/>
<path d="M0 0 C4 4.5 4 4.5 4 9 C3.34 9 2.68 9 2 9 C0.3125 7.3125 0.3125 7.3125 -1 5 C-0.6875 2.25 -0.6875 2.25 0 0 Z " fill="#A88E56" transform="translate(76,189)"/>
<path d="M0 0 C1.75 0.125 1.75 0.125 4 1 C6.3125 3.875 6.3125 3.875 8 7 C7.67 7.99 7.34 8.98 7 10 C4.74754119 7.31158141 3.11786042 5.35358125 2 2 C1.34 1.34 0.68 0.68 0 0 Z " fill="#A4754C" transform="translate(74,182)"/>
<path d="M0 0 C0.66 0 1.32 0 2 0 C2 0.66 2 1.32 2 2 C2.99 2.33 3.98 2.66 5 3 C4.34 4.32 3.68 5.64 3 7 C1.35 7 -0.3 7 -2 7 C-1.34 6.67 -0.68 6.34 0 6 C0 4.02 0 2.04 0 0 Z " fill="#CAA365" transform="translate(45,155)"/>
<path d="M0 0 C0.33 0.66 0.66 1.32 1 2 C1.66 2 2.32 2 3 2 C4.125 5.75 4.125 5.75 3 8 C2.01 7.67 1.02 7.34 0 7 C-0.38133299 5.0085944 -0.71325582 3.00720923 -1 1 C-0.67 0.67 -0.34 0.34 0 0 Z " fill="#BE9949" transform="translate(90,155)"/>
<path d="M0 0 C3.7952131 1.49097658 5.61042731 3.75700849 8 7 C7.67 7.66 7.34 8.32 7 9 C5.82460004 8.07347299 4.65989423 7.13336613 3.5 6.1875 C2.52546875 5.40439453 2.52546875 5.40439453 1.53125 4.60546875 C0 3 0 3 0 0 Z " fill="#B773D5" transform="translate(121,151)"/>
<path d="M0 0 C2.475 0.495 2.475 0.495 5 1 C3.70700306 3.88437779 2.34058637 5.87219421 0 8 C0 5.36 0 2.72 0 0 Z " fill="#AD68DD" transform="translate(166,157)"/>
<path d="M0 0 C0.66 0.33 1.32 0.66 2 1 C0.75 3.5 0.75 3.5 -1 6 C-2.32 6 -3.64 6 -5 6 C-5 5.34 -5 4.68 -5 4 C-4.01 4 -3.02 4 -2 4 C-1.34 2.68 -0.68 1.36 0 0 Z " fill="#1E1F20" transform="translate(99,153)"/>
<path d="M0 0 C0.66 0.33 1.32 0.66 2 1 C2.042721 2.66611905 2.04063832 4.33382885 2 6 C1 7 1 7 -1.5625 7.0625 C-2.7690625 7.0315625 -2.7690625 7.0315625 -4 7 C-3.34 5.68 -2.68 4.36 -2 3 C-1.34 3.33 -0.68 3.66 0 4 C0 2.68 0 1.36 0 0 Z " fill="#C975E8" transform="translate(157,115)"/>
<path d="M0 0 C2.1875 -0.375 2.1875 -0.375 5 0 C6.99022836 1.83961648 8.38989899 3.79186148 10 6 C6.40992874 4.66654496 3.20429093 3.1056769 0 1 C0 0.67 0 0.34 0 0 Z " fill="#A370DF" transform="translate(132,87)"/>
<path d="M0 0 C3.7910119 1.44950455 7.3874638 3.15172566 11 5 C9 6 9 6 6.8359375 5.44140625 C6.02382812 5.15136719 5.21171875 4.86132812 4.375 4.5625 C3.55773437 4.27503906 2.74046875 3.98757812 1.8984375 3.69140625 C1.27195312 3.46324219 0.64546875 3.23507813 0 3 C0 2.01 0 1.02 0 0 Z " fill="#C89273" transform="translate(93,142)"/>
<path d="M0 0 C1.65 0 3.3 0 5 0 C5.33 0.99 5.66 1.98 6 3 C4.02 3.33 2.04 3.66 0 4 C0 2.68 0 1.36 0 0 Z " fill="#9D8145" transform="translate(55,195)"/>
<path d="M0 0 C0.99 0.33 1.98 0.66 3 1 C3.33 2.98 3.66 4.96 4 7 C2.68 6.34 1.36 5.68 0 5 C0 3.35 0 1.7 0 0 Z " fill="#C39B55" transform="translate(71,181)"/>
<path d="M0 0 C0.625 1.8125 0.625 1.8125 1 4 C0.01 5.485 0.01 5.485 -1 7 C-1.99 6.67 -2.98 6.34 -4 6 C-2.68 4.02 -1.36 2.04 0 0 Z " fill="#A56CE6" transform="translate(122,117)"/>
<path d="M0 0 C3 3.625 3 3.625 3 7 C1.68 7 0.36 7 -1 7 C-0.67 4.69 -0.34 2.38 0 0 Z " fill="#DA1908" transform="translate(81,150)"/>
<path d="M0 0 C2.97 0.495 2.97 0.495 6 1 C5.34 1.66 4.68 2.32 4 3 C4 3.99 4 4.98 4 6 C3.01 5.67 2.02 5.34 1 5 C0.67 3.35 0.34 1.7 0 0 Z " fill="#CE9F57" transform="translate(87,141)"/>
<path d="M0 0 C2.50037734 2.17424117 3.43628586 3.73045798 4 7 C2.02 5.68 0.04 4.36 -2 3 C-1.34 2.01 -0.68 1.02 0 0 Z " fill="#C07CDD" transform="translate(171,104)"/>
<path d="M0 0 C0.66 0.66 1.32 1.32 2 2 C3.98356483 2.71408334 5.98315437 3.38617742 8 4 C7.67 4.99 7.34 5.98 7 7 C6.34 6.67 5.68 6.34 5 6 C5 5.34 5 4.68 5 4 C3.35 3.67 1.7 3.34 0 3 C0 2.01 0 1.02 0 0 Z " fill="#AA6AD7" transform="translate(129,88)"/>
<path d="M0 0 C0.66 0.33 1.32 0.66 2 1 C1.01 1.33 0.02 1.66 -1 2 C-1.33 2.99 -1.66 3.98 -2 5 C-3.32 4.34 -4.64 3.68 -6 3 C-4.03533587 1.93224776 -2.03144641 0.93446535 0 0 Z " fill="#B56DD5" transform="translate(114,79)"/>
</svg>
